<?xml version="1.0" encoding="UTF-8"?><svg id="Layer_2" xmlns="http://www.w3.org/2000/svg" viewBox="0 0 1385.86 1385.86"><defs><style>.cls-1{fill:#fff;}.cls-1,.cls-2{stroke-width:0px;}.cls-2{fill:#0918c7;}</style></defs><g id="Post"><circle class="cls-1" cx="692.93" cy="692.93" r="692.93"/><path class="cls-2" d="M1241.85,647.39c-157.34-175.42-248.15-366.48-548.59-366.48s-413.84,211.39-549.9,367.13c-22.44,25.69-22.44,64.06.04,89.7,138.42,157.88,252.38,367.2,549.86,367.2s397.37-196.54,548.74-366.46c23.16-25.99,23.09-65.18-.15-91.09ZM693.27,1005.18c-128.93,0-233.45-104.52-233.45-233.45s104.52-233.44,233.45-233.44c31.79,0,62.1,6.36,89.72,17.87-15.01,19.74-23.92,44.36-23.92,71.08,0,64.92,52.63,117.56,117.56,117.56,16.78,0,32.75-3.52,47.19-9.87,1.9,11.99,2.89,24.28,2.89,36.8,0,128.93-104.52,233.45-233.44,233.45Z"/></g></svg>